<svg width="320" height="400" viewBox="0 0 320 400" fill="none" xmlns="http://www.w3.org/2000/svg">
<path d="M0 0H300C311.046 0 320 8.95431 320 20V380C320 391.046 311.046 400 300 400H0V0Z" fill="#293038"/>
<path d="M24.162 69V36.968H20.08L21.302 32.6H28.53V69H24.162ZM38.8378 69V36.968H34.7558L35.9778 32.6H43.2058V69H38.8378ZM62.9256 69.676C60.7589 69.676 58.8176 69.1907 57.1016 68.22C55.3856 67.232 53.9122 65.8713 52.6816 64.138C51.4509 62.4047 50.5149 60.4027 49.8736 58.132C49.2322 55.844 48.9116 53.4 48.9116 50.8C48.9116 48.2 49.2322 45.756 49.8736 43.468C50.5149 41.18 51.4509 39.178 52.6816 37.462C53.9122 35.7287 55.3856 34.3767 57.1016 33.406C58.8176 32.418 60.7589 31.924 62.9256 31.924C65.0749 31.924 67.0076 32.418 68.7236 33.406C70.4569 34.3767 71.9216 35.7287 73.1176 37.462C74.3309 39.178 75.2582 41.18 75.8996 43.468C76.5582 45.756 76.8876 48.2 76.8876 50.8C76.8876 53.4 76.5582 55.844 75.8996 58.132C75.2582 60.4027 74.3309 62.4047 73.1176 64.138C71.9216 65.8713 70.4569 67.232 68.7236 68.22C67.0076 69.1907 65.0749 69.676 62.9256 69.676ZM62.9256 65.308C65.0922 65.308 66.9036 64.6407 68.3596 63.306C69.8329 61.954 70.9336 60.1773 71.6616 57.976C72.3896 55.7747 72.7536 53.3827 72.7536 50.8C72.7536 48.0787 72.3722 45.626 71.6096 43.442C70.8642 41.2407 69.7549 39.4987 68.2816 38.216C66.8256 36.9333 65.0402 36.292 62.9256 36.292C61.2616 36.292 59.8056 36.682 58.5576 37.462C57.3269 38.242 56.3042 39.308 55.4896 40.66C54.6749 42.012 54.0596 43.5633 53.6436 45.314C53.2449 47.0473 53.0456 48.876 53.0456 50.8C53.0456 53.3827 53.4182 55.7833 54.1636 58.002C54.9089 60.2033 56.0096 61.9713 57.4656 63.306C58.9389 64.6407 60.7589 65.308 62.9256 65.308Z" fill="#E4E3CE"/>
<path d="M23.8 227V101H67.27C73.51 101 79.18 102.29 84.28 104.87C89.44 107.39 93.52 111.08 96.52 115.94C99.52 120.8 101.02 126.62 101.02 133.4C101.02 137.06 100.39 140.6 99.13 144.02C97.93 147.38 96.25 150.29 94.09 152.75C91.99 155.15 89.59 156.77 86.89 157.61C90.67 158.57 93.88 160.28 96.52 162.74C99.16 165.14 101.29 167.96 102.91 171.2C104.59 174.44 105.79 177.83 106.51 181.37C107.23 184.91 107.59 188.33 107.59 191.63C107.59 198.59 106 204.74 102.82 210.08C99.7 215.36 95.5 219.5 90.22 222.5C84.94 225.5 79.12 227 72.76 227H23.8ZM38.92 213.68H71.41C75.55 213.68 79.3 212.63 82.66 210.53C86.08 208.37 88.81 205.43 90.85 201.71C92.89 197.99 93.91 193.79 93.91 189.11C93.91 184.97 92.89 181.07 90.85 177.41C88.81 173.69 86.08 170.69 82.66 168.41C79.3 166.13 75.55 164.99 71.41 164.99H38.92V213.68ZM38.92 151.94H65.83C71.35 151.94 76.06 150.32 79.96 147.08C83.92 143.78 85.9 139.19 85.9 133.31C85.9 126.95 83.92 122.21 79.96 119.09C76.06 115.91 71.35 114.32 65.83 114.32H38.92V151.94ZM161.31 229.34C153.03 229.34 145.47 227.21 138.63 222.95C131.85 218.69 126.42 212.99 122.34 205.85C118.32 198.65 116.31 190.7 116.31 182C116.31 175.4 117.48 169.25 119.82 163.55C122.16 157.79 125.37 152.75 129.45 148.43C133.59 144.05 138.39 140.63 143.85 138.17C149.31 135.71 155.13 134.48 161.31 134.48C168.09 134.48 174.3 135.86 179.94 138.62C185.64 141.32 190.5 145.1 194.52 149.96C198.6 154.82 201.63 160.46 203.61 166.88C205.65 173.3 206.4 180.17 205.86 187.49H132.42C133.14 192.59 134.82 197.15 137.46 201.17C140.1 205.13 143.46 208.28 147.54 210.62C151.68 212.96 156.27 214.16 161.31 214.22C166.71 214.22 171.6 212.84 175.98 210.08C180.36 207.26 183.9 203.42 186.6 198.56L201.99 202.16C198.39 210.14 192.96 216.68 185.7 221.78C178.44 226.82 170.31 229.34 161.31 229.34ZM131.97 175.61H190.65C190.17 170.57 188.55 165.98 185.79 161.84C183.03 157.64 179.52 154.28 175.26 151.76C171 149.24 166.35 147.98 161.31 147.98C156.27 147.98 151.65 149.21 147.45 151.67C143.25 154.13 139.77 157.46 137.01 161.66C134.31 165.8 132.63 170.45 131.97 175.61Z" fill="#E4E3CE"/>
<path d="M23.12 303V266.6H35.678C37.4807 266.6 39.1187 266.973 40.592 267.718C42.0827 268.446 43.2613 269.512 44.128 270.916C44.9947 272.32 45.428 274.001 45.428 275.96C45.428 277.017 45.246 278.04 44.882 279.028C44.5353 279.999 44.05 280.839 43.426 281.55C42.8193 282.243 42.126 282.711 41.346 282.954C42.438 283.231 43.3653 283.725 44.128 284.436C44.8907 285.129 45.506 285.944 45.974 286.88C46.4593 287.816 46.806 288.795 47.014 289.818C47.222 290.841 47.326 291.829 47.326 292.782C47.326 294.793 46.8667 296.569 45.948 298.112C45.0467 299.637 43.8333 300.833 42.308 301.7C40.7827 302.567 39.1013 303 37.264 303H23.12ZM27.488 299.152H36.874C38.07 299.152 39.1533 298.849 40.124 298.242C41.112 297.618 41.9007 296.769 42.49 295.694C43.0793 294.619 43.374 293.406 43.374 292.054C43.374 290.858 43.0793 289.731 42.49 288.674C41.9007 287.599 41.112 286.733 40.124 286.074C39.1533 285.415 38.07 285.086 36.874 285.086H27.488V299.152ZM27.488 281.316H35.262C36.8567 281.316 38.2173 280.848 39.344 279.912C40.488 278.959 41.06 277.633 41.06 275.934C41.06 274.097 40.488 272.727 39.344 271.826C38.2173 270.907 36.8567 270.448 35.262 270.448H27.488V281.316ZM62.8452 303.676C60.4532 303.676 58.2692 303.061 56.2932 301.83C54.3345 300.599 52.7658 298.953 51.5872 296.89C50.4258 294.81 49.8452 292.513 49.8452 290C49.8452 288.093 50.1832 286.317 50.8592 284.67C51.5352 283.006 52.4625 281.55 53.6412 280.302C54.8372 279.037 56.2238 278.049 57.8012 277.338C59.3785 276.627 61.0598 276.272 62.8452 276.272C64.8038 276.272 66.5978 276.671 68.2272 277.468C69.8738 278.248 71.2778 279.34 72.4392 280.744C73.6178 282.148 74.4932 283.777 75.0652 285.632C75.6545 287.487 75.8712 289.471 75.7152 291.586H54.4992C54.7072 293.059 55.1925 294.377 55.9552 295.538C56.7178 296.682 57.6885 297.592 58.8672 298.268C60.0632 298.944 61.3892 299.291 62.8452 299.308C64.4052 299.308 65.8178 298.909 67.0832 298.112C68.3485 297.297 69.3712 296.188 70.1512 294.784L74.5972 295.824C73.5572 298.129 71.9885 300.019 69.8912 301.492C67.7938 302.948 65.4452 303.676 62.8452 303.676ZM54.3692 288.154H71.3212C71.1825 286.698 70.7145 285.372 69.9172 284.176C69.1198 282.963 68.1058 281.992 66.8752 281.264C65.6445 280.536 64.3012 280.172 62.8452 280.172C61.3892 280.172 60.0545 280.527 58.8412 281.238C57.6278 281.949 56.6225 282.911 55.8252 284.124C55.0452 285.32 54.5598 286.663 54.3692 288.154ZM79.8427 303V264H84.2107V303H79.8427ZM107.25 277H111.878L97.6563 316H93.0283L97.7343 303L88.4003 277H93.1843L99.9183 296.994L107.25 277ZM136.141 277H140.509V303H136.141L135.959 298.606C135.145 300.114 134.018 301.336 132.579 302.272C131.158 303.208 129.459 303.676 127.483 303.676C125.577 303.676 123.791 303.321 122.127 302.61C120.463 301.882 118.99 300.885 117.707 299.62C116.442 298.337 115.454 296.864 114.743 295.2C114.033 293.536 113.677 291.742 113.677 289.818C113.677 287.963 114.024 286.213 114.717 284.566C115.411 282.919 116.373 281.481 117.603 280.25C118.851 279.002 120.29 278.031 121.919 277.338C123.549 276.627 125.299 276.272 127.171 276.272C129.217 276.272 131.011 276.757 132.553 277.728C134.096 278.681 135.344 279.921 136.297 281.446L136.141 277ZM127.405 299.438C129.121 299.438 130.603 299.022 131.851 298.19C133.117 297.341 134.087 296.197 134.763 294.758C135.457 293.319 135.803 291.733 135.803 290C135.803 288.232 135.457 286.637 134.763 285.216C134.07 283.777 133.091 282.642 131.825 281.81C130.577 280.961 129.104 280.536 127.405 280.536C125.689 280.536 124.129 280.961 122.725 281.81C121.321 282.659 120.203 283.803 119.371 285.242C118.557 286.663 118.149 288.249 118.149 290C118.149 291.751 118.574 293.345 119.423 294.784C120.273 296.205 121.399 297.341 122.803 298.19C124.207 299.022 125.741 299.438 127.405 299.438ZM167.097 303H162.079L155.163 291.066L150.379 296.786V303H146.011V264H150.379V290L161.273 277H166.967L158.127 287.53L167.097 303ZM181.572 303.676C179.18 303.676 176.996 303.061 175.02 301.83C173.061 300.599 171.492 298.953 170.314 296.89C169.152 294.81 168.572 292.513 168.572 290C168.572 288.093 168.91 286.317 169.586 284.67C170.262 283.006 171.189 281.55 172.368 280.302C173.564 279.037 174.95 278.049 176.528 277.338C178.105 276.627 179.786 276.272 181.572 276.272C183.964 276.272 186.139 276.887 188.098 278.118C190.074 279.349 191.642 281.004 192.804 283.084C193.982 285.164 194.572 287.469 194.572 290C194.572 291.889 194.234 293.657 193.558 295.304C192.882 296.951 191.946 298.407 190.75 299.672C189.571 300.92 188.193 301.899 186.616 302.61C185.056 303.321 183.374 303.676 181.572 303.676ZM181.572 299.308C183.201 299.308 184.666 298.883 185.966 298.034C187.283 297.167 188.314 296.032 189.06 294.628C189.822 293.207 190.204 291.664 190.204 290C190.204 288.301 189.814 286.741 189.034 285.32C188.271 283.899 187.24 282.763 185.94 281.914C184.64 281.065 183.184 280.64 181.572 280.64C179.942 280.64 178.478 281.073 177.178 281.94C175.878 282.789 174.846 283.925 174.084 285.346C173.321 286.767 172.94 288.319 172.94 290C172.94 291.733 173.33 293.311 174.11 294.732C174.89 296.136 175.938 297.254 177.256 298.086C178.573 298.901 180.012 299.308 181.572 299.308ZM211.277 303H205.687L196.197 276.948H200.851L208.469 297.93L216.087 276.948H220.741L211.277 303Z" fill="#E4E3CE"/>
<path d="M31.704 366.572C29.768 366.572 27.9933 366.095 26.38 365.142C24.7813 364.174 23.498 362.883 22.53 361.27C21.5767 359.657 21.1 357.875 21.1 355.924C21.1 354.795 21.232 353.834 21.496 353.042C21.76 352.235 22.1487 351.341 22.662 350.358L31.396 335.2H34.982L28.58 346.288C29.8707 345.789 31.1687 345.569 32.474 345.628C33.7793 345.672 35.026 345.958 36.214 346.486C37.402 347.014 38.458 347.74 39.382 348.664C40.306 349.573 41.032 350.644 41.56 351.876C42.1027 353.108 42.374 354.457 42.374 355.924C42.374 357.391 42.0953 358.769 41.538 360.06C40.9807 361.336 40.2107 362.465 39.228 363.448C38.26 364.416 37.1307 365.179 35.84 365.736C34.5493 366.293 33.1707 366.572 31.704 366.572ZM31.704 363.492C33.1707 363.492 34.476 363.14 35.62 362.436C36.764 361.717 37.6587 360.779 38.304 359.62C38.964 358.461 39.294 357.222 39.294 355.902C39.294 354.523 38.9567 353.269 38.282 352.14C37.6073 350.996 36.698 350.087 35.554 349.412C34.41 348.723 33.1413 348.378 31.748 348.378C30.3107 348.378 29.02 348.73 27.876 349.434C26.732 350.138 25.83 351.062 25.17 352.206C24.51 353.335 24.18 354.567 24.18 355.902C24.18 357.339 24.5247 358.63 25.214 359.774C25.918 360.918 26.842 361.827 27.986 362.502C29.13 363.162 30.3693 363.492 31.704 363.492ZM45.4358 368.464L46.7998 361.028H49.8798L47.4818 368.464H45.4358ZM57.5873 366V338.28H54.2873L55.1673 335.2H60.6673V366H57.5873ZM69.2319 366V338.28H65.9319L66.8119 335.2H72.3119V366H69.2319Z" fill="#E4E3CE"/>
</svg>
